<svg width="184" height="63" viewBox="0 0 184 63" fill="none" xmlns="http://www.w3.org/2000/svg">
<path d="M72.1329 48.4343C73.7076 48.4343 75.2468 47.9634 76.556 47.0812C77.8653 46.199 78.8857 44.9451 79.4883 43.4782C80.0909 42.0111 80.2486 40.3968 79.9413 38.8394C79.6342 37.2821 78.8759 35.8515 77.7625 34.7287C76.6491 33.6059 75.2305 32.8412 73.6861 32.5314C72.1418 32.2217 70.541 32.3807 69.0862 32.9883C67.6314 33.596 66.3881 34.625 65.5132 35.9453C64.6384 37.2656 64.1715 38.8178 64.1715 40.4057C64.1715 42.535 65.0103 44.5771 66.5034 46.0828C67.9964 47.5884 70.0214 48.4343 72.1329 48.4343ZM72.1329 35.4778C73.0951 35.4778 74.0357 35.7654 74.8358 36.3044C75.6359 36.8434 76.2596 37.6094 76.628 38.5058C76.9964 39.4022 77.0931 40.3885 76.9057 41.3403C76.7184 42.292 76.2554 43.1663 75.5754 43.8528C74.8953 44.5392 74.0287 45.007 73.0852 45.1968C72.1416 45.3867 71.1634 45.2902 70.2741 44.9196C69.3849 44.5489 68.6246 43.9207 68.0894 43.1144C67.5541 42.3081 67.2679 41.3599 67.267 40.3896C67.2662 39.7447 67.3914 39.106 67.6356 38.51C67.8798 37.914 68.2381 37.3724 68.69 36.9162C69.142 36.46 69.6787 36.0981 70.2694 35.8513C70.8602 35.6045 71.4934 35.4776 72.1329 35.4778ZM46.6272 51.7546C45.0346 45.4134 43.4922 39.0582 42 32.689H45.3999C46.3741 36.9718 47.3658 41.2502 48.3752 45.5244C49.4242 41.2362 50.4977 36.9534 51.5957 32.6761H54.4364C55.4779 36.6336 56.5375 40.591 57.6152 44.5484C58.6172 40.5813 59.6356 36.6184 60.6706 32.6599H64.0722C62.4699 38.3688 60.9078 44.0826 59.3857 49.8012C58.0623 49.9628 57.4005 50.0581 56.0787 50.2439C55.0308 46.4017 54.007 42.5541 53.0072 38.7011C51.9391 42.86 50.8955 47.0243 49.8765 51.1939C48.5787 51.4072 47.9282 51.5204 46.6272 51.7546ZM82.1292 47.9835L82.1532 32.6454H85.7325C87.8165 35.9996 89.9111 39.3512 92.0164 42.7001C92.0164 39.348 92.0164 35.9948 92.0164 32.6405H95.3715L95.3859 47.8963C93.9439 47.8672 93.2325 47.8575 91.797 47.8478C89.7002 44.4968 87.5991 41.149 85.4938 37.8044V47.8914C84.1432 47.9172 83.4702 47.9366 82.1292 47.9835ZM98.1884 47.9738L98.1659 32.6454H103.423C108.091 32.6082 111.52 36.0012 111.546 40.7095C111.572 45.4177 108.053 48.4941 103.46 48.1984C101.346 48.0837 100.292 48.0384 98.1836 47.9706L98.1884 47.9738ZM101.553 45.2271C102.181 45.2513 102.495 45.2626 103.121 45.2901C105.845 45.3919 108.17 43.3787 108.149 40.5673C108.128 37.756 105.877 35.5586 103.099 35.5036L101.534 35.4891L101.553 45.2271ZM113.57 48.9432C113.551 43.5133 113.533 38.0823 113.515 32.6502L124.162 32.6631C124.162 33.9557 124.162 34.602 124.171 35.8946C121.74 35.8278 119.31 35.7697 116.881 35.7201C116.881 37.1274 116.881 37.8303 116.892 39.2359C119.219 39.3377 120.382 39.3975 122.707 39.5187C122.707 40.8112 122.707 41.4495 122.718 42.7372C120.393 42.5563 119.23 42.4739 116.904 42.3252L116.916 46.2029C119.431 46.4378 121.941 46.6931 124.447 46.9688C124.447 48.2727 124.447 48.9254 124.456 50.2294C120.828 49.714 117.195 49.2971 113.557 48.9529L113.57 48.9432ZM138.644 52.6287C137.31 52.3621 136.643 52.2345 135.307 51.9825C135.135 50.0436 135.051 49.0741 134.879 47.153C134.765 45.8184 134.007 44.8247 132.957 44.7068C131.743 44.5711 131.136 44.5049 129.922 44.3836L129.936 51.0518C128.589 50.8336 127.916 50.7286 126.571 50.5267L126.511 32.6712L133.11 32.6825C136.412 32.7682 138.481 35.7944 138.388 38.9451C138.332 40.8743 137.63 42.2331 136.427 42.8923C137.43 43.8618 138.077 45.324 138.21 47.0739C138.377 49.2874 138.462 50.4071 138.632 52.632L138.644 52.6287ZM129.893 35.9592C129.893 37.9756 129.893 38.9839 129.903 41.0003C131.118 41.0908 131.726 41.1377 132.947 41.2346C134.487 41.359 135.155 40.1504 135.155 38.7464C135.155 37.3682 134.482 36.1063 132.939 36.0546C131.716 36.0142 131.109 35.9948 129.893 35.9592ZM50.5254 27.5897V11.7992H53.9029V24.6572H61.0167V27.5897H50.5254ZM62.2216 27.5897V11.7992H65.5943V27.5897H62.2216ZM67.5826 19.6937C67.5826 14.3036 71.3847 11.615 75.5232 11.615C79.4599 11.615 82.2782 13.9384 82.4801 17.3218H79.1475C78.9007 15.6301 77.5148 14.525 75.5008 14.525C72.8395 14.525 70.7807 16.4202 70.7807 19.6953C70.7807 22.9704 72.8395 25.0191 75.4271 25.0191C77.3738 25.0191 79.2964 23.5973 79.2964 22.1318C79.3024 22.0475 79.2903 21.9628 79.261 21.8836C79.2317 21.8043 79.1859 21.7323 79.1267 21.6724C79.0675 21.6126 78.9962 21.5662 78.9177 21.5365C78.8392 21.5067 78.7553 21.4943 78.6716 21.5001H75.653V18.9504H79.9021C80.2347 18.9479 80.5645 19.012 80.8722 19.1391C81.1801 19.2662 81.4597 19.4538 81.695 19.6909C81.9303 19.928 82.1164 20.2099 82.2427 20.5202C82.3689 20.8305 82.4327 21.163 82.4304 21.4984V27.5897H79.4551V25.1759C78.9407 26.7318 77.2856 27.7691 75.2717 27.7691C71.2694 27.7691 67.5778 25.0854 67.5778 19.6937H67.5826ZM94.6986 11.7992H98.071V27.5897H94.6937V20.9798H88.2513V27.5897H84.8962V11.7992H88.2513V18.0699H94.6937L94.6986 11.7992ZM103.879 27.5897V14.7091H99.2488V11.8008H111.865V14.7091H107.234V27.5897H103.879ZM127.046 24.4084C127.206 24.1822 127.366 23.9624 127.527 23.7621C128.089 23.0576 128.648 22.3516 129.662 22.3079V19.385C128.861 19.4012 128.06 19.4691 127.453 20.0314C126.985 20.4895 126.54 20.971 126.12 21.4742C125.835 21.7974 125.568 22.1302 125.285 22.4679L122.914 19.8536C123.301 19.6161 123.678 19.4045 124.035 19.1605C124.619 18.7908 125.103 18.282 125.445 17.6789C125.926 16.7579 125.985 15.7723 125.795 14.7705C125.696 14.1597 125.443 13.5848 125.06 13.1018C124.676 12.6187 124.176 12.244 123.606 12.0141C122.966 11.7285 122.272 11.5833 121.572 11.588C120.872 11.5927 120.181 11.7473 119.544 12.0416C117.824 12.801 117.104 14.6477 117.389 16.3249C117.532 17.1538 117.976 17.8437 118.453 18.5126L118.702 18.8454C118.331 19.0894 117.974 19.3027 117.641 19.5483C116.853 20.1348 116.24 20.8586 116.002 21.8458C115.85 22.5048 115.824 23.1869 115.925 23.8558C116.062 24.9702 116.631 25.9845 117.508 26.6768C118.255 27.2608 119.145 27.6289 120.084 27.7416C121.585 27.9614 123.021 27.7723 124.349 26.9968C124.699 26.7932 125.028 26.5589 125.376 26.3327C125.74 26.7383 126.101 27.1406 126.472 27.5429C126.534 27.6046 126.616 27.6415 126.703 27.6463C127.331 27.6592 127.959 27.6625 128.587 27.6657C129.021 27.6657 129.455 27.6657 129.89 27.6657L129.912 27.5994L127.046 24.4084ZM121.509 14.0257C122.319 13.9966 122.904 14.3359 123.121 14.9644C123.236 15.2918 123.251 15.647 123.161 15.9827C123.072 16.3184 122.883 16.6187 122.62 16.8435C122.419 17.0144 122.205 17.1695 121.98 17.3072C121.701 17.4769 121.408 17.6207 121.103 17.792C120.659 17.1457 120.158 16.5543 120.058 15.7481C120.025 15.5366 120.038 15.3203 120.095 15.1141C120.152 14.9079 120.252 14.7165 120.39 14.5531C120.527 14.3896 120.697 14.2579 120.89 14.1669C121.082 14.0759 121.291 14.0277 121.504 14.0257H121.509ZM121.88 25.003C121.244 25.1253 120.586 25.0695 119.979 24.8414C118.719 24.347 118.567 22.665 119.3 21.8571C119.65 21.4849 120.063 21.1789 120.52 20.9539L123.548 24.2936C123.049 24.6521 122.478 24.8943 121.875 25.003H121.88ZM142.292 50.9759H141.749V50.6042H143.276V50.9759H142.733V52.8662H142.292V50.9759ZM143.539 50.6042H144.082L144.77 52.2749L145.471 50.6042H146V52.8662H145.577V51.215L144.882 52.8646H144.643L143.954 51.215V52.8646H143.534L143.539 50.6042Z" fill="#F1F1F1"/>
</svg>
