<svg width="183" height="63" viewBox="0 0 183 63" fill="none" xmlns="http://www.w3.org/2000/svg">
<path d="M55.6231 34.9624L47.3471 22.1203C47.2923 22.0356 47.199 21.9844 47.0983 21.9844H44.1463C43.4101 21.9844 42.8132 22.5829 42.8132 23.3211V41.199H46.7302V28.3004C46.7302 28.2127 46.8013 28.1415 46.8887 28.1415L55.1647 41.0623C55.2195 41.1477 55.3128 41.199 55.4143 41.199H58.3129C59.0491 41.199 59.646 40.6004 59.646 39.8623V21.9844H55.729V34.8562C55.729 34.9149 55.6816 34.9624 55.6231 34.9624Z" fill="white"/>
<path d="M141 21.9844H126.593C125.857 21.9844 125.26 22.5829 125.26 23.3211V25.6737H130.855C130.937 25.6737 131.003 25.7406 131.003 25.8222V41.1997H133.587C134.324 41.1997 134.92 40.6012 134.92 39.863V25.8222C134.92 25.7406 134.987 25.6737 135.069 25.6737H140.013L140.999 21.9844H141Z" fill="#78BE20"/>
<path d="M119.163 34.9624L110.887 22.1203C110.832 22.0356 110.739 21.9844 110.638 21.9844H107.686C106.95 21.9844 106.353 22.5829 106.353 23.3211V41.199H110.27V28.3004C110.27 28.2127 110.341 28.1415 110.428 28.1415L118.704 41.0623C118.759 41.1477 118.853 41.199 118.954 41.199H121.853C122.589 41.199 123.186 40.6004 123.186 39.8623V21.9844H119.269V34.8562C119.269 34.9149 119.221 34.9624 119.163 34.9624Z" fill="#78BE20"/>
<path d="M76.0653 22.9748L75.344 25.6727H80.9391C81.0206 25.6727 81.0872 25.7396 81.0872 25.8213V41.1988H83.6711C84.4073 41.1988 85.0042 40.6002 85.0042 39.862V25.8213C85.0042 25.7396 85.0708 25.6727 85.1523 25.6727H90.0972L91.0829 21.9834H77.3525C76.7489 21.9834 76.2208 22.3896 76.0646 22.9741L76.0653 22.9748Z" fill="white"/>
<path d="M65.8966 33.0247H71.3962L72.2968 29.6539H65.8966C65.8152 29.6539 65.7485 29.5871 65.7485 29.5054V25.8213C65.7485 25.7396 65.8152 25.6727 65.8966 25.6727H73.2055L74.1912 21.9834H63.1639C62.4277 21.9834 61.8308 22.582 61.8308 23.3201V41.198H72.3938C72.9973 41.198 73.5254 40.7918 73.6816 40.2074L74.403 37.5094H65.8966C65.8152 37.5094 65.7485 37.4426 65.7485 37.3609V33.1725C65.7485 33.0908 65.8152 33.024 65.8966 33.024V33.0247Z" fill="white"/>
<path d="M96.088 33.0247H101.588L102.488 29.6539H96.088C96.0066 29.6539 95.9399 29.5871 95.9399 29.5054V25.8213C95.9399 25.7396 96.0066 25.6727 96.088 25.6727H103.397L104.383 21.9834H95.677C95.0734 21.9834 94.5454 22.3896 94.3891 22.9741L92.1237 31.4533C92.057 31.7043 92.0229 31.9628 92.0229 32.2219V41.198H102.586C103.189 41.198 103.718 40.7918 103.874 40.2074L104.595 37.5094H96.0888C96.0073 37.5094 95.9406 37.4426 95.9406 37.3609V33.1725C95.9406 33.0908 96.0073 33.024 96.0888 33.024L96.088 33.0247Z" fill="#78BE20"/>
</svg>
