<svg width="20" height="20" viewBox="0 0 20 20" fill="none" xmlns="http://www.w3.org/2000/svg">
<path d="M6.45866 2.5C5.28825 2.5 4.33366 3.45459 4.33366 4.625C4.33366 4.87402 4.38623 5.11198 4.46647 5.33333H4.33366C3.55062 5.33333 2.91699 5.96696 2.91699 6.75V9.58333H9.29199V5.33333H10.7087V9.58333H17.0837V6.75C17.0837 5.96696 16.45 5.33333 15.667 5.33333H15.5342C15.6144 5.11198 15.667 4.87402 15.667 4.625C15.667 3.45459 14.7124 2.5 13.542 2.5C12.5376 2.5 11.5664 3.18343 10.8193 3.91667H9.18132C8.43425 3.18343 7.46305 2.5 6.45866 2.5ZM6.45866 3.91667C7.09782 3.91667 7.903 4.59456 8.56152 5.33333H6.45866C6.06852 5.33333 5.75033 5.01514 5.75033 4.625C5.75033 4.23486 6.06852 3.91667 6.45866 3.91667ZM13.542 3.91667C13.9321 3.91667 14.2503 4.23486 14.2503 4.625C14.2503 5.01514 13.9321 5.33333 13.542 5.33333H11.4391C12.0783 4.6167 12.8973 3.91667 13.542 3.91667ZM2.91699 11V15.25C2.91699 16.033 3.55062 16.6667 4.33366 16.6667H9.29199V11H2.91699ZM10.7087 11V16.6667H15.667C16.45 16.6667 17.0837 16.033 17.0837 15.25V11H10.7087Z" fill="#232323"/>
</svg>
