<svg width="184" height="63" viewBox="0 0 184 63" fill="none" xmlns="http://www.w3.org/2000/svg">
<g clip-path="url(#clip0_33147_45499)">
<path d="M51.9058 33.9216V35.1332C51.9058 37.52 50.6472 39.6032 48.5484 40.7568C48.5024 40.7207 48.5009 40.7187 48.4549 40.6826C48.6566 40.2556 48.9769 39.3928 48.9769 37.9099C48.9769 34.7921 46.2443 33.0178 44.2201 32.1931L37.5077 29.455C36.5117 29.0485 35.5745 28.0555 36.0317 26.7906C36.7984 24.6693 39.4781 24.563 41.6155 25.5409C44.6156 26.9131 47.06 28.0901 48.6764 28.8553C50.6507 29.7903 51.9053 31.7608 51.9053 33.9216H51.9058ZM26.9189 39.6627C26.9189 39.937 27.0751 40.1761 27.305 40.2946L35.8824 45.2736C37.5147 46.2207 39.5325 46.2437 41.186 45.3336C42.4796 44.6216 43.9196 43.8399 44.1529 43.7052C46.8662 42.1339 47.9067 40.1248 47.9067 37.7849C47.9067 35.2786 45.4866 33.7703 43.6477 33.031L43.5834 33.132C43.9957 33.5243 44.5968 34.1538 44.5968 35.3596C44.5968 37.6063 42.5063 39.9004 38.8276 39.9004C34.7845 39.9004 33.0238 37.2833 30.1167 37.2833C28.8567 37.2833 26.9194 38.2124 26.9194 39.591V39.6642L26.9189 39.6627ZM51.0803 23.5855C51.0803 23.3049 50.9354 23.059 50.7145 22.9141V22.916L42.0594 17.739C40.4312 16.7845 38.4109 16.7518 36.7514 17.6575L29.6061 21.557C27.3811 22.7716 26 25.0832 26 27.5929V29.3662C26 31.3455 27.0831 33.3906 29.2328 34.4339C30.6713 35.1322 31.306 35.4016 31.8201 35.6515L31.9012 35.5695C30.9748 34.0572 30.5749 32.2697 30.5749 31.0219C30.5749 26.7125 33.7227 23.0385 38.5404 23.0385C42.4069 23.0385 45.2562 26.3427 48.0713 26.3427C50.1351 26.3427 51.0803 24.5654 51.0803 23.7422V23.5855ZM35.7178 31.184C33.4168 30.1846 32.8117 27.9496 33.176 26.6223L33.0663 26.5686C32.2507 27.6104 31.6595 28.9909 31.6595 30.9478C31.6595 34.1685 33.9368 38.0626 38.3179 38.0626C39.9363 38.0626 41.2493 36.8124 41.2493 35.2694C41.2493 34.0675 40.4257 33.0837 39.3338 32.6484C38.4277 32.2873 36.612 31.5724 35.7178 31.184Z" fill="#ED1846"/>
<path d="M62.0695 27.4174C62.0695 26.4922 62.6577 25.4489 64.6271 25.4489C65.7324 25.4489 66.9895 25.7412 68.3983 26.3263L69.2218 24.2401C67.7191 23.5843 66.2089 23.2559 64.6919 23.2559C61.806 23.2559 59.501 24.6344 59.501 27.4603C59.501 29.9144 60.9894 31.1012 63.4457 32.1138C65.5703 32.9897 66.8916 33.5592 66.8916 35.0451C66.8916 36.1631 66.1457 37.1742 63.8901 37.1742C61.898 37.1742 60.0393 36.429 59.3171 36.0938V38.5117C60.4585 39.0612 61.9252 39.3355 63.7166 39.3355C67.5589 39.3355 69.4601 37.4528 69.4601 34.8743C69.4601 32.0811 67.4146 31.1905 65.4027 30.3253C63.3033 29.422 62.069 28.9858 62.069 27.4179L62.0695 27.4174Z" fill="#F1F1F1"/>
<path d="M121.979 27.4174C121.979 26.4922 122.567 25.4489 124.537 25.4489C125.642 25.4489 126.899 25.7412 128.308 26.3263L129.131 24.2401C127.629 23.5843 126.118 23.2559 124.601 23.2559C121.715 23.2559 119.41 24.6344 119.41 27.4603C119.41 29.9144 120.899 31.1012 123.355 32.1138C125.48 32.9897 126.801 33.5592 126.801 35.0451C126.801 36.1631 126.055 37.1742 123.8 37.1742C121.807 37.1742 119.949 36.429 119.227 36.0938V38.5117C120.368 39.0612 121.835 39.3355 123.626 39.3355C127.468 39.3355 129.37 37.4528 129.37 34.8743C129.37 32.0811 127.324 31.1905 125.312 30.3253C123.213 29.422 121.978 28.9858 121.978 27.4179L121.979 27.4174Z" fill="#F1F1F1"/>
<path d="M84.5333 27.0752C83.7023 27.0752 81.8704 27.2523 80.8274 28.9364H80.6538C80.0542 27.6954 78.8333 27.0752 76.9909 27.0752C75.0458 27.0752 73.8639 28.0892 73.458 28.8402H73.328L72.9706 27.2889H70.9766V39.1206H73.5233V33.2263C73.5233 31.427 73.723 29.1291 76.3735 29.1291C77.5994 29.1291 78.5194 29.7357 78.5194 31.8252V39.1211H81.077V32.852C81.077 30.8097 81.55 29.1291 83.8788 29.1291C85.9391 29.1291 86.0943 30.9195 86.0943 31.8252V39.1211H88.6411V31.408C88.6411 28.341 87.257 27.0752 84.5333 27.0752Z" fill="#F1F1F1"/>
<path d="M98.484 28.8188H98.3758C97.5241 27.6564 96.3174 27.0752 94.7569 27.0752C90.5571 27.0752 89.9561 31.3226 89.9561 33.2263C89.9561 35.1518 90.4815 39.3339 94.7129 39.3339C96.3026 39.3339 97.49 38.7454 98.2774 37.5698H98.3753L98.2992 39.0352V39.1201H100.857V27.2884H98.7431L98.4831 28.8188H98.484ZM95.3955 37.3239C93.5166 37.3239 92.5789 35.9653 92.5789 33.2482C92.5789 31.8999 92.7979 29.1291 95.353 29.1291C98.0718 29.1291 98.4193 31.2553 98.4193 33.2263C98.4193 35.6418 97.9072 37.3234 95.395 37.3234L95.3955 37.3239Z" fill="#F1F1F1"/>
<path d="M105.531 29.3746H105.401L105.065 27.2884H103.071V39.1201H105.618V32.9369C105.618 31.8887 105.933 31.0362 106.566 30.3803C107.198 29.7245 108.023 29.1931 109.042 29.1931H110.418V27.1821C110.086 27.1108 109.663 27.0752 109.15 27.0752C107.094 27.0752 105.927 28.669 105.531 29.3751L105.531 29.3746Z" fill="#F1F1F1"/>
<path d="M114.664 36.8686C114.357 36.5797 114.203 36.1322 114.203 35.5261V29.1931H117.617V27.2889H114.203V24.6572H111.646V35.5691C111.646 38.0798 112.852 39.3349 115.265 39.3349C116.557 39.3349 117.454 39.0284 117.736 38.9069V37.0135C117.114 37.2063 116.493 37.3024 115.872 37.3024C115.373 37.3024 114.971 37.1579 114.664 36.8691L114.664 36.8686Z" fill="#F1F1F1"/>
<path d="M135.752 39.3349C137.543 39.3349 138.909 38.7932 139.913 37.7089C140.917 36.6251 141.419 35.1167 141.419 33.1838C141.419 31.3153 140.914 29.8299 139.902 28.728C138.891 27.6261 137.486 27.0752 135.752 27.0752C134.018 27.0752 132.613 27.6261 131.602 28.728C130.59 29.8299 130.085 31.3153 130.085 33.1838C130.085 35.1167 130.587 36.6251 131.591 37.7089C132.595 38.7932 133.961 39.3349 135.752 39.3349ZM135.752 37.2809C133.729 37.2809 132.707 35.9151 132.707 33.1838C132.707 30.4808 133.715 29.1291 135.752 29.1291C137.789 29.1291 138.797 30.4808 138.797 33.1838C138.797 35.9155 137.775 37.2809 135.752 37.2809Z" fill="#F1F1F1"/>
<path d="M150.909 35.5691C150.909 38.0798 152.116 39.3349 154.529 39.3349C155.82 39.3349 156.718 39.0285 156.999 38.907V37.0136C156.378 37.2063 155.757 37.3025 155.135 37.3025C154.637 37.3025 154.234 37.158 153.927 36.8691C153.62 36.5802 153.467 36.1328 153.467 35.5267C153.467 33.9432 153.467 29.1936 153.467 29.1936H156.88V27.2895H153.467V24.6578H151.438L150.946 27.2895H146.225V26.5195C146.225 25.8133 146.357 25.2839 146.621 24.9311C146.884 24.5778 147.305 24.4016 147.883 24.4016C148.454 24.4016 148.932 24.5016 149.495 24.7012L150.097 22.7971C149.32 22.5048 148.606 22.3584 147.71 22.3584C146.345 22.3584 145.33 22.6956 144.665 23.3695C144 24.0434 143.668 25.0794 143.668 26.477V27.247L141.696 28.0171V29.1941H143.668V39.1217H146.226V29.1941H150.909V35.5701V35.5691Z" fill="#F1F1F1"/>
</g>
<defs>
<clipPath id="clip0_33147_45499">
<rect width="131" height="29" fill="white" transform="translate(26 17)"/>
</clipPath>
</defs>
</svg>
